<svg width="66" height="66" viewBox="0 0 66 66" fill="none" xmlns="http://www.w3.org/2000/svg">
<rect x="0.87207" y="0.398132" width="65.1327" height="65.1327" rx="32.5664" fill="black"/>
<path fill-rule="evenodd" clip-rule="evenodd" d="M31.215 28.4695C34.1466 24.7033 38.7252 22.2784 43.8701 22.2782C44.0726 22.2782 44.2667 22.3586 44.4099 22.5017C44.553 22.6449 44.6334 22.839 44.6334 23.0415C44.6334 28.1866 42.2085 32.7656 38.4422 35.6974C38.4982 36.0506 38.5272 36.4123 38.5272 36.7804C38.5272 40.5743 35.4516 43.6499 31.6577 43.6499C31.2362 43.6499 30.8945 43.3081 30.8945 42.8866V38.6819C30.885 38.6751 30.8758 38.6681 30.8666 38.6609C29.8978 37.8926 29.0199 37.0147 28.2516 36.0459C28.2441 36.0364 28.2369 36.0269 28.2299 36.0171H24.025C23.6034 36.0171 23.2617 35.6754 23.2617 35.2539C23.2617 31.46 26.3373 28.3844 30.1312 28.3844C30.4996 28.3844 30.8616 28.4135 31.215 28.4695ZM37.0007 27.6211C35.736 27.6211 34.7108 28.6463 34.7108 29.9109C34.7108 31.1756 35.736 32.2008 37.0007 32.2008C38.2653 32.2008 39.2905 31.1756 39.2905 29.9109C39.2905 28.6463 38.2653 27.6211 37.0007 27.6211Z" fill="white"/>
<path d="M27.0886 38.2986C27.4265 38.0466 27.4961 37.5683 27.244 37.2305C26.992 36.8926 26.5137 36.823 26.1759 37.075C24.8718 38.0479 24.025 39.6051 24.025 41.36C24.025 41.6404 24.0467 41.9163 24.0886 42.1859C24.1396 42.5143 24.3972 42.7719 24.7256 42.823C24.9952 42.8649 25.2711 42.8865 25.5515 42.8865C27.3064 42.8865 28.8637 42.0397 29.8365 40.7357C30.0885 40.3978 30.0189 39.9195 29.6811 39.6675C29.3432 39.4154 28.8649 39.485 28.6129 39.8229C27.9158 40.7573 26.8041 41.36 25.5515 41.36C25.5515 40.1074 26.1542 38.9957 27.0886 38.2986Z" fill="white"/>
</svg>
