<svg width="66" height="66" viewBox="0 0 66 66" fill="none" xmlns="http://www.w3.org/2000/svg">
<rect x="0.87207" y="0.849426" width="65.1327" height="65.1327" rx="32.5664" fill="black"/>
<path fill-rule="evenodd" clip-rule="evenodd" d="M23.2617 25.7831C23.2617 24.0969 24.6286 22.73 26.3148 22.73H27.7107C28.5863 22.73 29.3496 23.3259 29.5619 24.1754L30.6873 28.6768C30.8735 29.4217 30.5952 30.2055 29.981 30.6662L28.6645 31.6536C28.5278 31.7561 28.4981 31.9062 28.5365 32.0111C29.6921 35.1657 32.1976 37.6713 35.3523 38.8269C35.4571 38.8653 35.6073 38.8356 35.7098 38.6989L36.6972 37.3824C37.1578 36.7682 37.9417 36.4899 38.6865 36.6761L43.188 37.8014C44.0375 38.0138 44.6334 38.7771 44.6334 39.6527V41.0486C44.6334 42.7347 43.2665 44.1017 41.5803 44.1017H39.2905C30.438 44.1017 23.2617 36.9253 23.2617 28.0729V25.7831Z" fill="white"/>
</svg>
