<svg width="66" height="66" viewBox="0 0 66 66" fill="none" xmlns="http://www.w3.org/2000/svg">
<rect x="0.661133" y="0.849609" width="65.1327" height="65.1327" rx="32.5664" fill="black"/>
<path d="M28.6418 40.031C28.2097 40.031 27.8075 39.7904 27.6494 39.3882C27.3094 38.5235 27.1226 37.5817 27.1226 36.5963C27.1226 34.8163 27.7319 33.1785 28.7534 31.8803C28.907 31.6852 29.1321 31.5659 29.3637 31.4762C29.8449 31.2899 30.2699 30.9528 30.5971 30.5356C31.384 29.5323 32.3757 28.6973 33.5092 28.0937C34.2441 27.7023 34.8818 27.1208 35.1911 26.3477C35.4075 25.8068 35.5186 25.2295 35.5186 24.6469V24.0023C35.5186 23.5807 35.8604 23.239 36.2819 23.239C37.5465 23.239 38.5717 24.2642 38.5717 25.5288C38.5717 26.7008 38.3076 27.8112 37.8356 28.8035C37.5653 29.3717 37.9444 30.1085 38.5737 30.1085H41.7548C42.7996 30.1085 43.7348 30.8148 43.8454 31.8537C43.8912 32.2834 43.9146 32.7197 43.9146 33.1616C43.9146 36.0596 42.9052 38.7219 41.2188 40.8159C40.8243 41.3057 40.2145 41.5576 39.5856 41.5576H35.4985C35.0063 41.5576 34.5173 41.4782 34.0503 41.3226L30.8807 40.2661C30.4138 40.1104 29.9248 40.031 29.4325 40.031H28.6418Z" fill="white"/>
<path d="M23.3892 32.1206C22.843 33.5065 22.543 35.0164 22.543 36.5963C22.543 37.838 22.7283 39.0364 23.0727 40.1653C23.3367 41.0304 24.1755 41.5576 25.08 41.5576H26.0038C26.4572 41.5576 26.7373 41.0505 26.5367 40.6439C25.9344 39.4234 25.5961 38.0494 25.5961 36.5963C25.5961 34.8579 26.0804 33.2326 26.9214 31.848C27.1708 31.4375 26.8927 30.8718 26.4124 30.8718H25.341C24.4942 30.8718 23.6996 31.3328 23.3892 32.1206Z" fill="white"/>
</svg>
