<svg width="66" height="66" viewBox="0 0 66 66" fill="none" xmlns="http://www.w3.org/2000/svg">
<rect x="0.205078" y="0.849609" width="65.1327" height="65.1327" rx="32.5664" fill="black"/>
<path d="M25.392 25.02C23.7058 25.02 22.3389 26.3869 22.3389 28.0731V28.8363H43.7105V28.0731C43.7105 26.3869 42.3436 25.02 40.6575 25.02H25.392Z" fill="white"/>
<path fill-rule="evenodd" clip-rule="evenodd" d="M43.7105 31.1262H22.3389V38.7589C22.3389 40.4451 23.7058 41.812 25.392 41.812H40.6575C42.3436 41.812 43.7105 40.4451 43.7105 38.7589V31.1262ZM25.392 34.9425C25.392 34.521 25.7337 34.1793 26.1552 34.1793H32.2614C32.683 34.1793 33.0247 34.521 33.0247 34.9425C33.0247 35.3641 32.683 35.7058 32.2614 35.7058H26.1552C25.7337 35.7058 25.392 35.3641 25.392 34.9425ZM26.1552 37.2323C25.7337 37.2323 25.392 37.5741 25.392 37.9956C25.392 38.4172 25.7337 38.7589 26.1552 38.7589H29.2083C29.6299 38.7589 29.9716 38.4172 29.9716 37.9956C29.9716 37.5741 29.6299 37.2323 29.2083 37.2323H26.1552Z" fill="white"/>
</svg>
